<svg xmlns="http://www.w3.org/2000/svg" viewBox="0 0 420 120" role="img" aria-labelledby="title">
<title id="title">نماء Namaa</title>
<g transform="translate(0)"><rect width="120" height="120" rx="30" fill="#0F3D3A"/><path d="M59 26c-13-14-30-13-40-11 2 18 11 31 29 36 6 2 10 6 12 11 2-5 6-9 12-11 18-5 27-18 29-36-10-2-27-3-40 11Z" fill="#7BA89E"/><path d="M60 56v29" stroke="#C8A46D" stroke-width="7" stroke-linecap="round"/><path d="M24 72c15-6 27-2 36 10 9-12 21-16 36-10v25c-15-6-27-3-36 7-9-10-21-13-36-7Z" fill="none" stroke="#F3E8D6" stroke-width="6" stroke-linejoin="round"/><path d="M14 70v28M106 70v28" stroke="#C8A46D" stroke-width="5" stroke-linecap="round"/></g>
<text x="155" y="68" font-family="Tahoma,Arial,sans-serif" font-size="54" font-weight="700" fill="#0F3D3A">نماء</text>
<line x1="282" y1="28" x2="282" y2="91" stroke="#C8A46D" stroke-width="2"/>
<text x="306" y="58" font-family="Arial,sans-serif" font-size="32" font-weight="700" fill="#0F3D3A">Namaa</text>
<text x="307" y="83" font-family="Arial,sans-serif" font-size="12" letter-spacing="2" fill="#C8A46D">AUDIO KNOWLEDGE</text>
</svg>
